<mxfile host="app.diagrams.net" modified="2024-03-10T17:05:06.049Z" agent="Mozilla/5.0 (Windows NT 10.0; Win64; x64) AppleWebKit/537.36 (KHTML, like Gecko) Chrome/122.0.0.0 Safari/537.36 Edg/122.0.0.0" etag="VbWGtvDnvQdsBmceGNSs" version="24.0.4" type="google">
  <diagram id="C5RBs43oDa-KdzZeNtuy" name="Page-1">
    <mxGraphModel grid="1" page="1" gridSize="10" guides="1" tooltips="1" connect="1" arrows="1" fold="1" pageScale="1" pageWidth="827" pageHeight="1169" math="0" shadow="0">
      <root>
        <mxCell id="WIyWlLk6GJQsqaUBKTNV-0" />
        <mxCell id="WIyWlLk6GJQsqaUBKTNV-1" parent="WIyWlLk6GJQsqaUBKTNV-0" />
        <mxCell id="JkLUqoQYDFdfVjaIbwbh-30" value="" style="edgeStyle=orthogonalEdgeStyle;rounded=0;orthogonalLoop=1;jettySize=auto;html=1;" edge="1" parent="WIyWlLk6GJQsqaUBKTNV-1" source="JkLUqoQYDFdfVjaIbwbh-0" target="JkLUqoQYDFdfVjaIbwbh-1">
          <mxGeometry relative="1" as="geometry" />
        </mxCell>
        <mxCell id="JkLUqoQYDFdfVjaIbwbh-0" value="&lt;font size=&quot;3&quot;&gt;Start&lt;/font&gt;" style="ellipse;whiteSpace=wrap;html=1;" vertex="1" parent="WIyWlLk6GJQsqaUBKTNV-1">
          <mxGeometry x="320" width="140" height="100" as="geometry" />
        </mxCell>
        <mxCell id="JkLUqoQYDFdfVjaIbwbh-31" value="" style="edgeStyle=orthogonalEdgeStyle;rounded=0;orthogonalLoop=1;jettySize=auto;html=1;" edge="1" parent="WIyWlLk6GJQsqaUBKTNV-1" source="JkLUqoQYDFdfVjaIbwbh-1" target="JkLUqoQYDFdfVjaIbwbh-2">
          <mxGeometry relative="1" as="geometry" />
        </mxCell>
        <mxCell id="JkLUqoQYDFdfVjaIbwbh-1" value="Input player1, player2" style="shape=parallelogram;perimeter=parallelogramPerimeter;whiteSpace=wrap;html=1;fixedSize=1;" vertex="1" parent="WIyWlLk6GJQsqaUBKTNV-1">
          <mxGeometry x="310" y="140" width="160" height="80" as="geometry" />
        </mxCell>
        <mxCell id="JkLUqoQYDFdfVjaIbwbh-6" value="" style="edgeStyle=orthogonalEdgeStyle;rounded=0;orthogonalLoop=1;jettySize=auto;html=1;" edge="1" parent="WIyWlLk6GJQsqaUBKTNV-1" source="JkLUqoQYDFdfVjaIbwbh-2" target="JkLUqoQYDFdfVjaIbwbh-5">
          <mxGeometry relative="1" as="geometry" />
        </mxCell>
        <mxCell id="JkLUqoQYDFdfVjaIbwbh-12" value="" style="edgeStyle=orthogonalEdgeStyle;rounded=0;orthogonalLoop=1;jettySize=auto;html=1;" edge="1" parent="WIyWlLk6GJQsqaUBKTNV-1" source="JkLUqoQYDFdfVjaIbwbh-2" target="JkLUqoQYDFdfVjaIbwbh-11">
          <mxGeometry relative="1" as="geometry" />
        </mxCell>
        <mxCell id="JkLUqoQYDFdfVjaIbwbh-2" value="player1==player2" style="rhombus;whiteSpace=wrap;html=1;" vertex="1" parent="WIyWlLk6GJQsqaUBKTNV-1">
          <mxGeometry x="320" y="270" width="140" height="120" as="geometry" />
        </mxCell>
        <mxCell id="JkLUqoQYDFdfVjaIbwbh-5" value="&lt;font style=&quot;font-size: 18px;&quot;&gt;Hòa nhau&lt;/font&gt;" style="rhombus;whiteSpace=wrap;html=1;" vertex="1" parent="WIyWlLk6GJQsqaUBKTNV-1">
          <mxGeometry x="540" y="270" width="150" height="120" as="geometry" />
        </mxCell>
        <mxCell id="JkLUqoQYDFdfVjaIbwbh-14" value="" style="edgeStyle=orthogonalEdgeStyle;rounded=0;orthogonalLoop=1;jettySize=auto;html=1;" edge="1" parent="WIyWlLk6GJQsqaUBKTNV-1" source="JkLUqoQYDFdfVjaIbwbh-11" target="JkLUqoQYDFdfVjaIbwbh-13">
          <mxGeometry relative="1" as="geometry" />
        </mxCell>
        <mxCell id="JkLUqoQYDFdfVjaIbwbh-11" value="&lt;font style=&quot;font-size: 14px;&quot;&gt;&lt;b&gt;player1 = 1 &amp;amp; player2 = 3&lt;/b&gt;&lt;/font&gt;" style="rhombus;whiteSpace=wrap;html=1;" vertex="1" parent="WIyWlLk6GJQsqaUBKTNV-1">
          <mxGeometry x="300" y="460" width="180" height="130" as="geometry" />
        </mxCell>
        <mxCell id="JkLUqoQYDFdfVjaIbwbh-16" value="" style="edgeStyle=orthogonalEdgeStyle;rounded=0;orthogonalLoop=1;jettySize=auto;html=1;" edge="1" parent="WIyWlLk6GJQsqaUBKTNV-1" source="JkLUqoQYDFdfVjaIbwbh-13" target="JkLUqoQYDFdfVjaIbwbh-15">
          <mxGeometry relative="1" as="geometry" />
        </mxCell>
        <mxCell id="JkLUqoQYDFdfVjaIbwbh-13" value="&lt;font style=&quot;font-size: 14px;&quot;&gt;&lt;b&gt;player1 = 2 &amp;amp; player2 = 1&lt;/b&gt;&lt;/font&gt;" style="rhombus;whiteSpace=wrap;html=1;" vertex="1" parent="WIyWlLk6GJQsqaUBKTNV-1">
          <mxGeometry x="300" y="670" width="180" height="130" as="geometry" />
        </mxCell>
        <mxCell id="JkLUqoQYDFdfVjaIbwbh-18" value="" style="edgeStyle=orthogonalEdgeStyle;rounded=0;orthogonalLoop=1;jettySize=auto;html=1;" edge="1" parent="WIyWlLk6GJQsqaUBKTNV-1" source="JkLUqoQYDFdfVjaIbwbh-15" target="JkLUqoQYDFdfVjaIbwbh-17">
          <mxGeometry relative="1" as="geometry" />
        </mxCell>
        <mxCell id="JkLUqoQYDFdfVjaIbwbh-21" value="" style="edgeStyle=orthogonalEdgeStyle;rounded=0;orthogonalLoop=1;jettySize=auto;html=1;" edge="1" parent="WIyWlLk6GJQsqaUBKTNV-1" source="JkLUqoQYDFdfVjaIbwbh-15" target="JkLUqoQYDFdfVjaIbwbh-19">
          <mxGeometry relative="1" as="geometry" />
        </mxCell>
        <mxCell id="JkLUqoQYDFdfVjaIbwbh-15" value="&lt;font style=&quot;font-size: 14px;&quot;&gt;&lt;b&gt;player1 = 3 &amp;amp; player2 = 2&lt;/b&gt;&lt;/font&gt;" style="rhombus;whiteSpace=wrap;html=1;" vertex="1" parent="WIyWlLk6GJQsqaUBKTNV-1">
          <mxGeometry x="300" y="880" width="180" height="130" as="geometry" />
        </mxCell>
        <mxCell id="JkLUqoQYDFdfVjaIbwbh-17" value="&lt;font size=&quot;3&quot;&gt;&lt;b&gt;Display Người 1 thắng&lt;/b&gt;&lt;/font&gt;" style="shape=parallelogram;perimeter=parallelogramPerimeter;whiteSpace=wrap;html=1;fixedSize=1;" vertex="1" parent="WIyWlLk6GJQsqaUBKTNV-1">
          <mxGeometry y="880" width="200" height="130" as="geometry" />
        </mxCell>
        <mxCell id="JkLUqoQYDFdfVjaIbwbh-19" value="&lt;font size=&quot;3&quot;&gt;&lt;b&gt;Display Người 2 thắng&lt;/b&gt;&lt;/font&gt;" style="shape=parallelogram;perimeter=parallelogramPerimeter;whiteSpace=wrap;html=1;fixedSize=1;" vertex="1" parent="WIyWlLk6GJQsqaUBKTNV-1">
          <mxGeometry x="280" y="1050" width="220" height="130" as="geometry" />
        </mxCell>
        <mxCell id="JkLUqoQYDFdfVjaIbwbh-23" value="" style="edgeStyle=segmentEdgeStyle;endArrow=classic;html=1;curved=0;rounded=0;endSize=8;startSize=8;exitX=0;exitY=0.5;exitDx=0;exitDy=0;entryX=0.554;entryY=-0.015;entryDx=0;entryDy=0;entryPerimeter=0;" edge="1" parent="WIyWlLk6GJQsqaUBKTNV-1" source="JkLUqoQYDFdfVjaIbwbh-11" target="JkLUqoQYDFdfVjaIbwbh-17">
          <mxGeometry width="50" height="50" relative="1" as="geometry">
            <mxPoint x="170" y="525" as="sourcePoint" />
            <mxPoint x="120" y="645" as="targetPoint" />
          </mxGeometry>
        </mxCell>
        <mxCell id="JkLUqoQYDFdfVjaIbwbh-24" value="" style="line;strokeWidth=2;html=1;" vertex="1" parent="WIyWlLk6GJQsqaUBKTNV-1">
          <mxGeometry x="110" y="730" width="190" height="10" as="geometry" />
        </mxCell>
        <mxCell id="JkLUqoQYDFdfVjaIbwbh-25" value="" style="edgeStyle=segmentEdgeStyle;endArrow=classic;html=1;curved=0;rounded=0;endSize=8;startSize=8;exitX=0.462;exitY=1.012;exitDx=0;exitDy=0;exitPerimeter=0;" edge="1" parent="WIyWlLk6GJQsqaUBKTNV-1" source="JkLUqoQYDFdfVjaIbwbh-17" target="JkLUqoQYDFdfVjaIbwbh-26">
          <mxGeometry width="50" height="50" relative="1" as="geometry">
            <mxPoint x="110" y="1290" as="sourcePoint" />
            <mxPoint x="290" y="1380" as="targetPoint" />
            <Array as="points">
              <mxPoint x="90" y="1012" />
              <mxPoint x="90" y="1380" />
              <mxPoint x="210" y="1380" />
            </Array>
          </mxGeometry>
        </mxCell>
        <mxCell id="JkLUqoQYDFdfVjaIbwbh-26" value="&lt;font style=&quot;font-size: 18px;&quot;&gt;&lt;b&gt;End&lt;/b&gt;&lt;/font&gt;" style="ellipse;whiteSpace=wrap;html=1;" vertex="1" parent="WIyWlLk6GJQsqaUBKTNV-1">
          <mxGeometry x="295" y="1320" width="190" height="120" as="geometry" />
        </mxCell>
        <mxCell id="JkLUqoQYDFdfVjaIbwbh-28" value="" style="endArrow=classic;html=1;rounded=0;entryX=0.5;entryY=0;entryDx=0;entryDy=0;" edge="1" parent="WIyWlLk6GJQsqaUBKTNV-1" source="JkLUqoQYDFdfVjaIbwbh-19" target="JkLUqoQYDFdfVjaIbwbh-26">
          <mxGeometry width="50" height="50" relative="1" as="geometry">
            <mxPoint x="390" y="1270" as="sourcePoint" />
            <mxPoint x="440" y="1220" as="targetPoint" />
          </mxGeometry>
        </mxCell>
        <mxCell id="JkLUqoQYDFdfVjaIbwbh-29" value="" style="edgeStyle=segmentEdgeStyle;endArrow=classic;html=1;curved=0;rounded=0;endSize=8;startSize=8;entryX=0.974;entryY=0.583;entryDx=0;entryDy=0;entryPerimeter=0;" edge="1" parent="WIyWlLk6GJQsqaUBKTNV-1" target="JkLUqoQYDFdfVjaIbwbh-26">
          <mxGeometry width="50" height="50" relative="1" as="geometry">
            <mxPoint x="610" y="390" as="sourcePoint" />
            <mxPoint x="660" y="340" as="targetPoint" />
            <Array as="points">
              <mxPoint x="610" y="1390" />
            </Array>
          </mxGeometry>
        </mxCell>
      </root>
    </mxGraphModel>
  </diagram>
</mxfile>
